<?xml version="1.0" encoding="UTF-8"?>
<!-- Created with Inkscape (http://www.inkscape.org/) -->
<svg width="123.48mm" height="38.413mm" version="1.1" viewBox="0 0 123.48 38.413" xmlns="http://www.w3.org/2000/svg">
 <g transform="translate(-50.812 -149.34)">
  <g stroke-width=".26458" aria-label="Fluid Dynamics">
   <path d="m68.645 183.99v-12.54h6.9419v2.1101h-4.4011v3.2126h3.9274v2.1015h-3.9274v5.116z"/>
   <path d="m79.48 170.76v13.229h-2.446v-13.229z"/>
   <path d="m86.026 183.99-0.06029-0.86127q-0.75792 1.0335-2.0412 1.0335-1.1541 0-1.8776-0.8096-0.72347-0.8096-0.72347-2.6527v-6.0289h2.4374v6.0289q0 1.4211 0.89572 1.4211 0.84405 0 1.2144-0.72347v-6.7266h2.446v9.319z"/>
   <path d="m90.056 172.26q0-0.56844 0.36174-0.93017 0.36174-0.37035 0.97324-0.37035 0.60289 0 0.96463 0.37035 0.36174 0.36173 0.36174 0.93017 0 0.55983-0.36174 0.93018-0.36174 0.36174-0.96463 0.36174-0.6115 0-0.97324-0.36174-0.36174-0.37035-0.36174-0.93018zm2.558 2.4116v9.319h-2.446v-9.319z"/>
   <path d="m99.255 184-0.11197-0.96463q-0.7407 1.1283-1.9379 1.1283-1.4556 0-2.2307-1.1455-0.77515-1.1455-0.78376-3.3073v-0.66318q0-2.2652 0.74931-3.402 0.75792-1.1455 2.2738-1.1455 1.0938 0 1.8001 0.93017v-4.6681h2.446v13.229zm-2.6269-4.3408q0 1.2833 0.267 1.8776 0.27561 0.58567 1.0163 0.58567 0.74931 0 1.1024-0.65457v-4.2375q-0.36174-0.69763-1.0938-0.69763-0.72347 0-1.0077 0.59428-0.28422 0.59427-0.28422 1.9206z"/>
   <path d="m107.44 183.99v-12.54h3.3159q2.179 0 3.5054 1.3866 1.3264 1.3866 1.3264 3.9188v1.9379q0 2.5235-1.3264 3.9102-1.3264 1.3866-3.5312 1.3866zm2.5408-10.43v8.3285h0.74931q1.3522 0 1.8345-0.74069 0.49093-0.7407 0.49093-2.4546v-1.9551q0-1.6881-0.4737-2.4202-0.46509-0.7407-1.7656-0.75792z"/>
   <path d="m118.45 187.76q-0.43925 0-0.99908-0.16364v-1.8948l0.29284 9e-3q0.59428 0 0.86988-0.24116 0.27561-0.23254 0.41342-0.74069l0.19809-0.64596-2.6872-9.4051h2.6097l1.1283 5.2538 1.2316-5.2538h2.601l-3.0748 10.74q-0.65457 2.1532-2.2221 2.3254z"/>
   <path d="m128.57 176.53q-0.66318 0-1.0335 0.68902v6.7696h-2.4374v-9.319h2.2824l0.0689 0.91295q0.83544-1.0852 2.1704-1.0852 1.0938 0 1.7742 0.79237 0.68902 0.79237 0.68902 2.7733v5.9256h-2.4374v-5.9428q0-0.88711-0.27561-1.1972-0.26699-0.31867-0.80098-0.31867z"/>
   <path d="m138.26 183.99q-0.12919-0.29283-0.2067-0.72347-0.66319 0.89573-1.7742 0.89573-1.1283 0-1.9206-0.75792-0.78376-0.75793-0.78376-2.024 0-1.4211 0.91295-2.2479 0.91295-0.83543 2.7905-0.83543h0.65457v-0.74931q0-1.1455-0.84405-1.1455-0.91295 0-0.91295 1.068h-2.4374q0-1.223 0.92156-2.0929 0.93018-0.8785 2.4977-0.8785 1.3866 0 2.2996 0.72347 0.92157 0.72347 0.92157 2.3599v4.3753q0.0172 1.2402 0.33589 1.8862v0.14641zm-1.4297-1.7484q0.39618 0 0.6804-0.16365 0.28422-0.16364 0.42203-0.38757v-1.9379h-0.57706q-0.68902 0-1.0163 0.42203-0.32728 0.42202-0.32728 1.0335 0 1.0335 0.81821 1.0335z"/>
   <path d="m145.59 176.53q-0.63734 0-0.99046 0.66318v6.7954h-2.4374v-9.319h2.2824l0.0689 0.86128q0.8096-1.0335 2.1532-1.0335 1.3867 0 1.9809 1.2488 0.80098-1.2488 2.2738-1.2488 1.1283 0 1.8173 0.80098 0.68902 0.80099 0.68902 2.7561v5.9342h-2.4374v-5.9342q0-0.93017-0.25838-1.223-0.25838-0.30144-0.72347-0.30144-0.68902 0-1.0077 0.84404l9e-3 6.6146h-2.4288v-5.917q0-0.92157-0.25839-1.2316-0.25838-0.31005-0.73208-0.31005z"/>
   <path d="m155.23 172.26q0-0.56844 0.36173-0.93017 0.36174-0.37035 0.97324-0.37035 0.6029 0 0.96463 0.37035 0.36174 0.36173 0.36174 0.93017 0 0.55983-0.36174 0.93018-0.36173 0.36174-0.96463 0.36174-0.6115 0-0.97324-0.36174-0.36173-0.37035-0.36173-0.93018zm2.558 2.4116v9.319h-2.446v-9.319z"/>
   <path d="m163.06 182.14q1.068 0 1.068-1.378h2.291q-9e-3 1.5934-0.96463 2.4977-0.9474 0.90434-2.3513 0.90434-1.8604 0-2.7733-1.1541-0.91295-1.1627-0.93017-3.2642v-0.74931q0-2.136 0.91295-3.3159 0.91295-1.1799 2.7819-1.1799 1.4986 0 2.403 0.93017 0.91295 0.93018 0.92157 2.7216h-2.291q0-1.6278-1.0852-1.6278-0.80099 0-1.0077 0.63735-0.1981 0.63734-0.1981 1.8345v0.67179q0 1.2316 0.1981 1.8517 0.19809 0.62012 1.0249 0.62012z"/>
   <path d="m171.92 181.49q0-0.36174-0.37035-0.63735-0.37035-0.2756-1.2402-0.65457-1.2747-0.49953-1.9637-1.1369-0.68041-0.63734-0.68041-1.757 0-1.1627 0.85266-1.9809 0.85267-0.82682 2.3685-0.82682 1.5675 0 2.4719 0.8096 0.90433 0.80098 0.90433 2.1101h-2.4374q0-1.1455-0.9474-1.1455-0.8785 0-0.8785 0.91295 0 0.36174 0.33589 0.61151 0.34451 0.24977 1.2402 0.62012 1.3953 0.52537 2.0498 1.1713 0.66318 0.64596 0.66318 1.8001 0 1.2402-0.92156 2.0068-0.92156 0.76654-2.4805 0.76654-1.6881 0-2.5838-0.95602-0.88712-0.96462-0.88712-2.1015h2.3082q0.0172 0.75792 0.35312 1.0163 0.3359 0.25838 0.86128 0.25838 0.98185 0 0.98185-0.88711z"/>
  </g>
  <g fill="#fc60a8" stroke="#fc60a8" stroke-width=".265" aria-label="Awesome">
   <path d="m51.023 168.32 3.6328-7.5241h0.54777l1.018 7.5241h-0.58911l-0.25838-2.1032h-2.7233l-0.99735 2.1032zm1.8862-2.6562h2.3926l-0.49609-4.0204z"/>
   <path d="m63.57 162.74-2.2634 5.5862h-0.49609l-0.39791-4.4493 0.0052-0.13953-0.04651 0.14469-1.9275 4.4442h-0.48576l-0.3514-5.5914h0.5581l0.22221 4.3201-0.02067 0.30489 0.11886-0.33073 1.8552-4.2943h0.48059l0.35657 4.2943 0.0052 0.36173 0.12919-0.38757 1.6846-4.2685z"/>
   <path d="m67.265 167.69q-0.64595 0.75964-1.7001 0.74414-0.7183-0.0155-1.1059-0.39274-0.3824-0.37723-0.50643-0.95084-0.12402-0.57878-0.05684-1.1937l0.05684-0.47542q0.2067-1.6898 1.1575-2.434 0.49092-0.3824 1.2247-0.35656 0.69246 0.0207 1.0232 0.3979 0.3359 0.37207 0.41341 0.93534 0.08268 0.55811 0.0155 1.1317l-0.06718 0.48058h-3.1936l-0.05168 0.32556q-0.06201 0.44442 0 0.89917 0.06718 0.45475 0.33073 0.76998 0.26355 0.31006 0.80615 0.32039 0.72347 0.0258 1.3849-0.58911zm-0.96635-4.5268q-0.54777-0.0207-0.894 0.25838-0.34623 0.27906-0.5426 0.72347-0.1912 0.43925-0.29456 0.894h2.6562l0.02584-0.14986q0.04651-0.37724-0.0052-0.76998-0.04651-0.39274-0.26872-0.66145-0.21704-0.27389-0.67696-0.29456z"/>
   <path d="m71.383 166.91q0.05684-0.45475-0.29456-0.7183-0.3514-0.26355-0.67696-0.43925-0.53743-0.28938-0.95084-0.62011-0.41341-0.3359-0.37207-0.97152 0.04651-0.70796 0.57877-1.1265 0.53227-0.41858 1.2196-0.40307 0.72347 0.0155 1.1317 0.47025 0.40824 0.44958 0.35657 1.1627h-0.56327q0.03101-0.45992-0.22221-0.76998-0.25321-0.31522-0.7338-0.32039-0.44958-0.0103-0.80098 0.24804-0.34623 0.25322-0.40308 0.7183-0.05168 0.43408 0.28422 0.6718 0.3359 0.23771 0.65112 0.40307 0.49609 0.25838 0.95084 0.62012 0.45475 0.35656 0.41341 1.0387-0.05168 0.75447-0.60978 1.1627-0.55294 0.40825-1.2712 0.39274-0.72347-0.0155-1.1886-0.44958-0.45992-0.43925-0.40308-1.1834l0.56844 5e-3q-0.04134 1.08 1.0542 1.0904 0.45475 5e-3 0.83716-0.24288 0.38757-0.25321 0.44442-0.73897z"/>
   <path d="m73.254 165.82 0.05168-0.41857q0.21187-1.6692 1.1679-2.4133 0.49092-0.3824 1.2299-0.36173 0.70796 0.0207 1.0749 0.42891 0.37207 0.40308 0.48059 1.0025 0.10852 0.59428 0.04134 1.1834l-0.05168 0.41858q-0.21187 1.6743-1.1679 2.4184-0.49609 0.3824-1.2299 0.36173-0.70796-0.0207-1.08-0.42891-0.3669-0.40825-0.47542-1.0025-0.10852-0.59945-0.04134-1.1886zm0.56844 0.89917q0.04651 0.47542 0.28939 0.82165 0.24288 0.34107 0.78031 0.36174 0.57877 0.0207 0.94568-0.29456 0.3669-0.32039 0.5581-0.81648 0.19637-0.4961 0.26355-1.0077l0.07235-0.54777q0.04651-0.40824-0.0052-0.88366-0.04651-0.47542-0.28939-0.82166-0.23771-0.34623-0.77514-0.3669-0.56327-0.0207-0.93017 0.30489-0.3669 0.3204-0.57361 0.82682-0.20154 0.50126-0.27905 1.0955-0.07751 0.59428-0.08268 0.83199 0 0.23771 0.02584 0.49609z"/>
   <path d="m80.737 163.17q-0.51676-0.0155-0.92501 0.37207-0.40307 0.38757-0.53743 0.86299l-0.66662 3.9222h-0.57877l0.97151-5.5914h0.55294l-0.16536 0.82682q0.27905-0.40824 0.66662-0.67179 0.38757-0.26872 0.90434-0.25838 0.49092 0.0103 0.80615 0.27905 0.32039 0.26872 0.39274 0.7493 0.29456-0.43924 0.70796-0.73897 0.41341-0.29972 0.97151-0.28938 0.57361 0.0103 0.84749 0.32556 0.27905 0.31006 0.34623 0.78031 0.07235 0.46509 0.02067 0.94051l-0.60978 3.6483h-0.57877l0.60978-3.6587q0.03617-0.33589 0.0052-0.68212-0.031-0.34107-0.21704-0.57361-0.18087-0.23771-0.60461-0.24288-0.58911-0.0103-0.99218 0.44958-0.40307 0.45475-0.5116 0.98702l-0.63562 3.7207h-0.56844l0.61495-3.7052q0.05684-0.50126-0.07751-0.97151-0.13436-0.47025-0.74931-0.48059z"/>
   <path d="m89.423 167.69q-0.64595 0.75964-1.7001 0.74414-0.7183-0.0155-1.1059-0.39274-0.3824-0.37723-0.50643-0.95084-0.12402-0.57878-0.05684-1.1937l0.05684-0.47542q0.2067-1.6898 1.1575-2.434 0.49092-0.3824 1.2247-0.35656 0.69246 0.0207 1.0232 0.3979 0.3359 0.37207 0.41341 0.93534 0.08268 0.55811 0.0155 1.1317l-0.06718 0.48058h-3.1936l-0.05168 0.32556q-0.06201 0.44442 0 0.89917 0.06718 0.45475 0.33073 0.76998 0.26355 0.31006 0.80615 0.32039 0.72347 0.0258 1.3849-0.58911zm-0.96635-4.5268q-0.54777-0.0207-0.894 0.25838-0.34623 0.27906-0.5426 0.72347-0.1912 0.43925-0.29456 0.894h2.6562l0.02584-0.14986q0.04651-0.37724-0.0052-0.76998-0.04651-0.39274-0.26872-0.66145-0.21704-0.27389-0.67696-0.29456z"/>
  </g>
  <g fill="none" stroke="#494368">
   <path transform="matrix(.26458 0 0 .26458 -7.3803 5.491)" d="m482.83 608.68c-0.26085-1.0794 1.3263-0.88415 1.794-0.43355 1.2675 1.2211 0.35611 3.2432-0.92693 4.0216-2.295 1.3923-5.1731-0.0382-6.2491-2.2874-1.5791-3.3008 0.42862-7.1348 3.6479-8.4767 4.2907-1.7886 9.1084 0.81651 10.704 5.0083 2.0082 5.275-1.2029 11.088-6.3688 12.932-6.2566 2.2331-13.071-1.5883-15.159-7.7293-2.4611-7.2369 1.9732-15.056 9.0897-17.387 8.2163-2.6912 17.042 2.3577 19.614 10.45 2.9225 9.1952-2.7419 19.03-11.811 21.842-10.174 3.1548-21.018-3.126-24.07-13.171-3.3878-11.152 3.5099-23.007 14.532-26.297" stroke-width="1.8898"/>
   <path transform="matrix(.21628 .15241 -.15241 .21628 99.397 -56.607)" d="m555.94 597.72c1.183 0.1862 0.33267 1.6866-0.30948 1.9663-1.7402 0.75799-3.3779-0.98548-3.623-2.5852-0.4385-2.8616 2.1758-5.1374 4.861-5.2798 3.9407-0.20901 6.9302 3.3753 6.9366 7.1367 9e-3 5.0133-4.5773 8.7359-9.4125 8.5934-6.0845-0.17938-10.548-5.7802-10.25-11.688 0.36098-7.1553 6.9836-12.364 13.964-11.907 8.226 0.5389 14.183 8.1874 13.564 16.24-0.71451 9.2967-9.3912 16.003-18.515 15.221-10.367-0.88855-17.824-10.595-16.877-20.791 1.0615-11.438 11.799-19.645 23.067-18.534 12.509 1.2337 21.468 13.004 20.191 25.343" stroke-width="1.8898"/>
   <path transform="matrix(.21988 .14716 .14716 -.21988 -72.791 227.4)" d="m510.81 614.39c-0.59369 0.24868-0.62812-0.6776-0.41332-0.98676 0.58209-0.83782 1.8232-0.50248 2.3868 0.1601 1.0081 1.1852 0.45457 2.964-0.73353 3.7869-1.7436 1.2077-4.1226 0.41176-5.187-1.307-1.4187-2.2908-0.37154-5.2878 1.8804-6.5871 2.8338-1.635 6.4563-0.33273 7.9872 2.4538 1.8542 3.3749 0.29475 7.6266-3.0273 9.3873-3.9149 2.0749-8.798 0.2573-10.787-3.6007-2.2968-4.4542-0.2202-9.9703 4.1741-12.187 4.9931-2.5193 11.143-0.18334 13.588 4.7476 2.7424 5.5317 0.14666 12.316-5.321 14.988-6.0701 2.9658-13.49 0.11011-16.388-5.8944" stroke-width="1.1339"/>
   <path transform="matrix(.25273 -.078291 -.078291 -.25273 45.974 336.25)" d="m400.22 574.29c-0.52671 1.9014-2.8228 0.22806-3.1602-0.87543-0.91412-2.9904 2.2467-5.3438 4.911-5.4449 4.7658-0.18082 8.0003 4.525 7.7296 8.9466-0.39724 6.489-6.8247 10.709-12.982 10.014-8.207-0.92649-13.439-9.1308-12.299-17.018 1.4351-9.925 11.44-16.18 21.053-14.584 11.644 1.9333 18.927 13.75 16.868 25.089-2.4254 13.363-16.061 21.677-29.125 19.153-15.082-2.9136-24.43-18.373-21.438-33.16 3.3994-16.802 20.685-27.184 37.196-23.723 18.522 3.8834 29.94 22.998 26.007 41.231-4.3661 20.242-25.311 32.697-45.267 28.292-11.357-2.5068-21.184-10.086-26.678-20.313" stroke-width="2.6457"/>
   <path transform="matrix(.088198 -.24945 -.24945 -.088198 219.6 324.53)" d="m469.59 576.38c-0.26196 0.59782-0.93509-0.0582-0.99362-0.43541-0.15859-1.0222 0.98721-1.6441 1.8644-1.5518 1.5691 0.16509 2.4068 1.8583 2.11 3.2934-0.43548 2.1062-2.7388 3.1857-4.7225 2.6683-2.6438-0.68965-3.9711-3.6225-3.2265-6.1515 0.93707-3.1825 4.5075-4.7599 7.5805-3.7847 3.7218 1.1811 5.5505 5.3933 4.3429 9.0095-1.4231 4.2615-6.2796 6.3423-10.439 4.9011-4.8016-1.6639-7.135-7.1662-5.4593-11.868 1.904-5.3419 8.0531-7.9281 13.297-6.0176 5.8824 2.1434 8.7217 8.94 6.5758 14.726-2.3824 6.423-9.8272 9.5156-16.155 7.134" stroke-width="1.1339"/>
  </g>
 </g>
</svg>
